<?xml version="1.0" encoding="utf-8"?>
<!-- Generator: Adobe Illustrator 19.1.1, SVG Export Plug-In . SVG Version: 6.00 Build 0)  -->
<svg version="1.1" xmlns="http://www.w3.org/2000/svg" xmlns:xlink="http://www.w3.org/1999/xlink" x="0px" y="0px"
	 viewBox="0 0 300 300" style="enable-background:new 0 0 300 300;" xml:space="preserve">
<style type="text/css">
	.st0{fill:#666666;}
</style>
<g id="안내선">
</g>
<g id="store-default.svg">
	<g>
		<g>
			<path class="st0" d="M35.5,219.3c3.4-3.4,7.4-6.1,11.5-8c1.5-10.5,10.7-21.2,20.9-31.4c0.9-0.9,1.8-1.7,2.7-2.6
				c-3-8.6-4.6-17.7-4.6-27.3c0-46.3,37.7-84,84-84c46.3,0,84,37.7,84,84c0,7.3-0.9,14.4-2.7,21.1c1.3,4.9,1.5,10.1,0.5,15.4
				l36.5,36.5c13.2-21.3,20.8-46.3,20.8-73.1c0-76.7-62.4-139.1-139.1-139.1C73.3,10.9,10.9,73.3,10.9,150
				c0,26.8,7.6,51.8,20.8,73.1L35.5,219.3z"/>
			<path class="st0" d="M198.6,219.8c-0.8,0.2-1.6,0.2-2.3,0.3c-13.3,8.8-29.2,13.9-46.2,13.9c-19.6,0-37.6-6.7-51.9-18
				c-7.4,7-14.3,13.3-19.1,17.3c-1.1,6.8-4.7,13.6-10.2,19.2l-5.8,5.9c23.9,19.2,54.1,30.8,87.1,30.8c33,0,63.2-11.5,87.1-30.8
				L198.6,219.8z"/>
		</g>
		<path class="st0" d="M178.5,134.6c-2.6,2.6-2.6,6.7,0,9.3l25.6,25.6c-2.1,2-4.4,4.4-6.7,6.8c-0.2-0.3-0.4-0.5-0.6-0.8l-29.6-29.6
			c-2.6-2.6-6.7-2.6-9.3,0c-2.6,2.6-2.6,6.7,0,9.3l29.6,29.6c0.2,0.2,0.5,0.4,0.8,0.6c-2.4,2.4-4.8,4.6-6.8,6.7l-25.6-25.6
			c-2.6-2.6-6.7-2.6-9.3,0c-2.6,2.6-2.6,6.7,0,9.3l29.6,29.6c0.2,0.2,0.3,0.3,0.5,0.4c6.4,5.8,15.8,6.9,24.6,3.7l71.7,71.7
			c7.3,7.3,17.8,8.7,23.4,3.1c5.6-5.6,4.2-16.1-3.1-23.4l-71.7-71.7c3.2-8.8,2-18.2-3.7-24.6c-0.1-0.2-0.2-0.3-0.4-0.5l-29.6-29.6
			C185.2,132,181.1,132,178.5,134.6z"/>
		<path class="st0" d="M70.1,228.6c14.2-10.3,79.3-74.8,76.4-77.7c-10.1-10.1-42.4,5.8-72.1,35.5c-17.1,17.1-20.1,25.6-17.7,31.6
			c-4.8,0.6-10.2,3.3-14.6,7.7L8.1,259.7c-8.2,8.2-10.4,19.5-4.8,25.1c5.6,5.6,16.8,3.5,25.1-4.8L62.3,246
			C67.6,240.7,70.4,234.1,70.1,228.6z"/>
	</g>
</g>
</svg>
